<?xml version="1.0" encoding="UTF-8" standalone="no"?>
<!-- Created with Inkscape (http://www.inkscape.org/) -->

<svg
   width="270"
   height="270"
   viewBox="0 0 71.437499 71.4375"
   version="1.1"
   id="svg5"
   xml:space="preserve"
   inkscape:version="1.2.2 (732a01da63, 2022-12-09)"
   sodipodi:docname="xkcd.svg"
   xmlns:inkscape="http://www.inkscape.org/namespaces/inkscape"
   xmlns:sodipodi="http://sodipodi.sourceforge.net/DTD/sodipodi-0.dtd"
   xmlns="http://www.w3.org/2000/svg"
   xmlns:svg="http://www.w3.org/2000/svg"><sodipodi:namedview
     id="namedview7"
     pagecolor="#ffffff"
     bordercolor="#000000"
     borderopacity="0.25"
     inkscape:showpageshadow="2"
     inkscape:pageopacity="0.0"
     inkscape:pagecheckerboard="0"
     inkscape:deskcolor="#d1d1d1"
     inkscape:document-units="mm"
     showgrid="false"
     inkscape:zoom="0.914906"
     inkscape:cx="342.65815"
     inkscape:cy="562.35285"
     inkscape:window-width="2560"
     inkscape:window-height="1356"
     inkscape:window-x="-8"
     inkscape:window-y="-8"
     inkscape:window-maximized="1"
     inkscape:current-layer="layer1" /><defs
     id="defs2" /><g
     inkscape:label="Layer 1"
     inkscape:groupmode="layer"
     id="layer1"><rect
       style="fill:#ffffff;stroke:#000000;stroke-width:1.05028"
       id="rect352"
       width="69.934143"
       height="65.017883"
       x="0.89271277"
       y="3.2062507"
       ry="5.5650034"
       inkscape:label="rect352"
       rx="4.9554539" /><path
       style="fill:#2b0000;stroke-width:0.18735"
       d="m 45.903649,53.787925 c -2.089375,-0.43215 -3.972157,-2.101795 -4.687779,-4.157112 -1.096371,-3.14882 -0.346803,-6.90806 1.744477,-8.748873 1.276808,-1.123895 2.363174,-1.430776 4.942998,-1.396335 1.184989,0.01579 2.407451,0.105839 2.716577,0.200051 0.528317,0.161 0.565421,0.23518 0.618238,1.235845 0.06401,1.212273 0.109549,1.189203 -1.554991,0.787289 -2.959206,-0.714532 -4.443068,-0.06182 -5.550359,2.441362 -0.442198,0.999667 -0.538676,3.250807 -0.192729,4.496792 0.274819,0.989782 1.402212,2.292769 2.360335,2.727964 0.984436,0.44714 1.948288,0.441461 3.618337,-0.02131 0.743683,-0.206084 1.399584,-0.374703 1.457549,-0.374703 0.05799,0 0.08011,0.481668 0.04921,1.070364 l -0.05622,1.070363 -1.03042,0.311944 c -1.307525,0.395832 -3.422782,0.565796 -4.435251,0.356384 z m 12.29684,0.02563 c -1.823925,-0.384998 -3.224877,-1.806067 -3.879893,-3.935598 -0.401688,-1.305933 -0.435705,-4.232227 -0.06451,-5.550048 0.593206,-2.10603 1.969247,-3.948549 3.311334,-4.433849 0.691731,-0.250135 0.640734,-0.07017 0.707939,-2.498102 0.01926,-0.696242 0.09808,-0.936753 0.306953,-0.936753 0.220918,0 0.292733,0.310549 0.335743,1.451963 l 0.05474,1.451962 h 0.910929 0.910929 L 59.82901,37.492577 c -0.661807,-1.281984 -1.068813,-1.871487 -1.293513,-1.873505 -0.322941,-0.0028 -0.435535,-0.497649 -0.373753,-1.642256 0.01267,-0.235102 -0.08628,-0.421536 -0.223765,-0.421536 -0.436513,0 -0.618111,-0.414689 -1.517795,-3.465976 -1.150611,-3.902325 -1.156921,-3.943069 -0.652283,-4.213143 0.224488,-0.120143 0.513008,-0.178207 0.641152,-0.129029 0.128144,0.04914 0.333045,-0.07081 0.455326,-0.266605 0.227893,-0.36491 0.781206,-0.494002 0.781206,-0.182249 0,0.09556 -0.210772,0.339538 -0.468377,0.542173 -0.257604,0.202636 -0.468376,0.461678 -0.468376,0.575646 0,0.264707 0.106483,0.260905 0.556074,-0.0199 0.199994,-0.124901 0.421635,-0.169093 0.49253,-0.0982 0.170842,0.170842 -0.277758,0.699994 -0.593426,0.699994 -0.185599,0 -0.207083,0.130162 -0.08505,0.515217 0.08981,0.283366 0.476796,1.516081 0.859974,2.739357 0.517724,1.652842 0.740349,2.146108 0.866701,1.920339 0.184381,-0.329476 0.900796,-0.422095 0.900796,-0.11646 0,0.103049 0.252925,0.187355 0.562051,0.187355 0.788237,0 0.74893,0.515118 -0.04681,0.613869 -0.398474,0.04942 -0.285172,0.07836 0.327862,0.08365 0.515209,0.0042 1.484747,-0.05906 2.154527,-0.141152 l 1.217774,-0.149231 -1.252195,0.03873 c -1.12524,0.03477 -1.271108,-0.0028 -1.438735,-0.370695 -0.202558,-0.444577 -0.05991,-0.621034 1.316426,-1.628115 0.377486,-0.276214 0.799022,-0.608877 0.936746,-0.739237 0.137724,-0.13036 0.560542,-0.468568 0.939599,-0.751572 0.555968,-0.415085 2.776787,-3.25747 2.776787,-3.553956 0,-0.04242 -0.484768,-0.04404 -1.077267,-0.0035 -0.915885,0.06245 -1.168031,0.0057 -1.68317,-0.380537 -1.367083,-1.02421 -1.92332,-2.282282 -1.92332,-4.350068 0,-1.277792 0.03562,-1.393134 0.622309,-2.015209 0.342272,-0.362913 0.869194,-0.785292 1.170941,-0.93863 0.828748,-0.421132 2.202735,-0.563084 3.103219,-0.320611 1.938013,0.521852 2.637384,2.401468 1.862134,5.004616 -0.215396,0.723256 -0.499724,1.404726 -0.631855,1.514375 -0.185152,0.153663 -0.199781,0.491998 -0.0638,1.47574 0.259347,1.876381 -0.221549,4.975577 -1.014445,6.537698 -0.328039,0.646293 -0.712917,1.219779 -0.855286,1.274408 -0.215771,0.08281 -0.258852,1.768361 -0.258852,10.128448 v 10.029074 h -1.311448 -1.311448 v -1.064146 -1.064153 l -0.631578,0.737856 c -1.121403,1.310103 -3.208739,1.979522 -4.996042,1.602256 z m 3.311405,-2.632838 c 0.426287,-0.193572 1.121828,-0.665227 1.545644,-1.048115 l 0.77057,-0.696164 v -3.146494 -3.146498 l -0.608891,-0.513999 c -1.690491,-1.427044 -3.703081,-1.587279 -4.983012,-0.396745 -1.347632,1.253526 -1.877436,4.529357 -1.148459,7.101009 0.226009,0.797294 0.999808,1.79381 1.572948,2.025668 0.674715,0.272949 2.04587,0.187029 2.8512,-0.178659 z M 63.828108,37.558643 V 34.06799 l -0.796239,0.124525 c -0.437935,0.06847 -1.491778,0.175778 -2.341875,0.238423 -0.850103,0.06267 -1.545643,0.196156 -1.545643,0.296692 0,0.100528 0.525781,1.200008 1.168399,2.443274 0.860944,1.66568 1.312425,2.337789 1.715756,2.554226 0.301054,0.161551 0.808042,0.523105 1.126643,0.803454 0.318607,0.280341 0.600358,0.512186 0.626118,0.515209 0.02577,0.0028 0.04681,-1.5653 0.04681,-3.48515 z m 2.912706,-5.208251 c 0.583484,-0.890507 1.003051,-2.326686 1.104982,-3.782366 l 0.103382,-1.476328 -0.278027,1.08456 c -0.334178,1.303638 -0.591202,1.819365 -0.906701,1.819365 -0.129489,0 -0.588753,0.360017 -1.020599,0.800034 -0.751104,0.765323 -0.769054,0.810096 -0.413711,1.032013 0.204307,0.127591 0.371467,0.399882 0.371467,0.605095 0,0.533047 0.670806,0.479876 1.039207,-0.08237 z m -1.788606,0.08666 c 0,-0.09981 -0.126465,-0.132945 -0.281028,-0.07363 -0.154563,0.05934 -0.281022,0.140968 -0.281022,0.181471 0,0.0405 0.126459,0.07363 0.281022,0.07363 0.154563,0 0.281028,-0.08167 0.281028,-0.181471 z M 57.631046,31.16656 c -0.200065,-0.592491 -0.584299,-1.836033 -0.853842,-2.763411 -0.269551,-0.927385 -0.573295,-1.770464 -0.674999,-1.873506 -0.202628,-0.205291 -0.216755,-0.26618 0.478113,2.060854 0.246155,0.824343 0.590841,1.983572 0.765967,2.576063 0.175126,0.592491 0.392689,1.07726 0.483473,1.07726 0.09078,0 0.0014,-0.484769 -0.198712,-1.07726 z m 5.362855,0.889912 c 0.540567,0 0.868351,-0.227695 2.225103,-1.545636 1.442999,-1.401716 1.618047,-1.649613 1.879957,-2.662267 0.15884,-0.614138 0.288796,-1.196539 0.288796,-1.294213 0,-0.09768 -0.442615,0.483869 -0.983586,1.29233 -0.643538,0.961734 -1.31438,1.700652 -1.940392,2.137292 -1.273303,0.888135 -2.878342,2.319216 -2.447013,2.181817 0.18875,-0.06012 0.628462,-0.109323 0.977135,-0.109323 z m 4.543441,-7.821856 c 0.623343,-0.629553 0.949619,-1.151065 1.115179,-1.782516 0.297924,-1.136273 0.295467,-2.533053 -0.0057,-3.13543 -0.617437,-1.235682 -2.980265,-1.482878 -4.448499,-0.465395 -0.985237,0.682773 -1.183609,1.191023 -1.049383,2.688587 0.181648,2.026588 1.430019,3.574052 2.889268,3.581508 0.490596,0.0028 0.799248,-0.18009 1.498952,-0.886754 z M 9.63857,53.493938 c -0.06774,-0.06776 0.32122,-0.682419 0.864344,-1.365964 1.987842,-2.501777 4.052115,-5.316695 4.052115,-5.525612 0,-0.259304 -4.419867,-6.151071 -4.755152,-6.338709 -0.232807,-0.13029 -2.7242995,0.146583 -2.8999778,0.322261 -0.1451382,0.145138 0.7538635,1.030554 1.5662529,1.542592 0.9382399,0.591351 3.4659759,3.160298 3.4659759,3.522481 0,0.476499 -0.726359,0.295347 -1.009254,-0.251706 -0.322825,-0.624278 -1.7526547,-1.985243 -2.9428729,-2.801138 -0.8655818,-0.593356 -2.0430756,-1.80048 -2.0430756,-2.094481 0,-0.350068 0.5470777,-0.566505 1.7411199,-0.688842 0.6910651,-0.07081 1.2564817,-0.201396 1.2564817,-0.290206 0,-0.08881 -0.6192403,-0.161481 -1.3760882,-0.161481 -1.0768602,0 -1.4381933,0.0713 -1.6616928,0.327869 -0.2653564,0.304616 -2.0897926,3.672294 -3.0956528,5.714177 -0.2411105,0.48945 -0.5615673,0.889913 -0.7121274,0.889913 -0.4194768,0 -0.3537805,-0.198196 0.7878638,-2.376827 0.9978885,-1.904308 1.4282126,-2.769132 2.0252973,-4.070257 0.1376933,-0.300055 0.2058588,-0.661502 0.1514785,-0.803213 -0.1098623,-0.286297 0.4459511,-0.99311 0.7809465,-0.99311 0.4301089,0 3.999992,-2.792719 4.894874,-3.829257 1.283885,-1.487119 1.344423,-1.622875 0.662906,-1.486574 C 10.62317,32.889688 8.9330139,32.089427 8.3236367,31.282879 7.7137879,30.4757 7.2931158,29.007295 7.3714976,27.959329 c 0.064564,-0.863224 0.6315923,-1.975457 1.0984464,-2.154605 0.3933644,-0.150952 0.3433212,-0.43186 -0.097467,-0.547131 -0.2060846,-0.05389 -0.3746997,-0.241722 -0.3746997,-0.4174 0,-0.260707 0.1150923,-0.297825 0.6261499,-0.201949 0.5964722,0.1119 0.640578,0.08074 0.930497,-0.657324 0.187247,-0.476683 0.396854,-0.740009 0.5447858,-0.684402 0.132245,0.04971 1.109806,0.374525 2.17236,0.72181 l 1.931919,0.631423 -0.121553,0.883787 c -0.121055,0.880169 -0.118729,0.88497 0.566972,1.171479 0.711744,0.297379 0.815967,0.761386 0.171018,0.761386 -0.306237,0 -0.374104,0.180515 -0.464995,1.236822 -0.0999,1.160993 -0.391564,1.858686 -1.334197,3.191561 -0.176543,0.249632 -0.106535,0.446022 0.376336,1.055691 0.326276,0.411956 0.931538,1.484769 1.34503,2.384021 l 0.751802,1.635006 -0.656786,1.641583 c -0.940996,2.351944 -0.898909,2.83985 0.386685,4.482892 0.573907,0.73348 1.114191,1.289894 1.200631,1.236468 0.08644,-0.05339 0.928064,-1.108614 1.870275,-2.34487 l 1.713112,-2.247741 h 1.207956 c 0.664377,0 1.20796,0.07712 1.20796,0.17138 0,0.09426 -0.473248,0.789795 -1.051655,1.545637 -2.640856,3.450964 -3.632098,4.788505 -3.632098,4.900993 0,0.06684 1.138152,1.626034 2.529226,3.464914 1.391073,1.838873 2.52923,3.445412 2.52923,3.57008 0,0.162422 -0.408592,0.211161 -1.44166,0.171946 l -1.441659,-0.05474 -1.829783,-2.435556 c -1.00638,-1.339553 -1.914851,-2.435549 -2.018823,-2.435549 -0.103974,0 -1.020508,1.095996 -2.036745,2.435549 l -1.847704,2.435556 -1.21017,0.05452 c -0.665593,0.02995 -1.2655888,-7.08e-4 -1.3333238,-0.06862 z m 4.44532,-14.820475 0.687497,-1.720104 -0.667105,-1.371176 c -0.366908,-0.754149 -0.678511,-1.244718 -0.69245,-1.090155 -0.01394,0.15457 -0.0097,1.081948 0.0096,2.060854 0.02398,1.222972 -0.05731,2.037217 -0.259817,2.602489 -0.224157,0.625722 -0.243226,0.884694 -0.07965,1.081792 0.118283,0.142518 0.237429,0.236015 0.264769,0.207762 0.02734,-0.02825 0.359083,-0.825412 0.737207,-1.771462 z m -1.516081,0.01862 c 0.200161,-0.521611 0.121609,-4.057957 -0.103999,-4.681867 l -0.217715,-0.602086 -0.853742,1.057165 c -0.993711,1.23047 -0.913809,1.160305 -3.1555195,2.770973 -0.9504659,0.682901 -1.6911999,1.301387 -1.6460765,1.374398 0.045127,0.07301 1.1156794,0.150577 2.3790092,0.172358 1.2633318,0.02181 2.3342698,0.07691 2.3798648,0.122507 0.212233,0.21223 1.115568,0.05396 1.218178,-0.213448 z m -0.305342,-7.128865 c 0.82186,-0.62687 1.539829,-2.145308 1.538463,-3.253718 -5.61e-4,-0.463688 -0.06298,-0.938983 -0.138682,-1.056208 -0.181289,-0.28071 -1.262865,-0.723616 -2.19202,-0.897631 -0.40861,-0.07652 -0.977971,-0.260685 -1.265248,-0.409236 -0.480038,-0.248237 -0.56925,-0.235562 -1.1019985,0.156574 -1.1178602,0.822813 -1.4047795,2.175409 -0.7951176,3.74835 0.3865334,0.997252 0.7284285,1.400038 1.5632171,1.841627 0.920296,0.486815 1.633774,0.448096 2.391386,-0.129758 z m 14.470322,12.079846 v -9.95871 l -0.478927,-0.627903 c -1.128626,-1.479699 -1.801981,-5.476519 -1.13873,-6.759105 0.262186,-0.507018 0.267731,-0.613657 0.03859,-0.741949 -0.441235,-0.247005 -1.043817,-1.898346 -1.043817,-2.860534 0,-1.28699 0.787536,-2.710091 1.968022,-3.556286 0.861454,-0.617501 1.017292,-0.662415 2.183815,-0.629425 1.429834,0.04043 2.175132,0.351109 3.201658,1.334589 0.665623,0.637717 0.913329,1.381436 0.537472,1.613727 -0.0908,0.05615 -0.224155,0.732425 -0.296359,1.502917 -0.105095,1.121566 -0.239541,1.550345 -0.674269,2.15047 -0.811456,1.120185 -1.298604,1.371516 -2.511967,1.295997 -0.570122,-0.03547 -1.036467,0.0086 -1.036325,0.09783 1.42e-4,0.08929 -0.211791,0.12182 -0.470954,0.07228 l -0.471209,-0.09008 0.498584,0.677123 c 0.662239,0.89938 2.131529,2.307341 2.702522,2.589723 0.717697,0.354925 3.409774,1.573592 3.877024,1.755076 0.289632,0.112495 0.421543,0.318792 0.421543,0.659258 0,0.493662 -0.0042,0.495093 -1.1241,0.379341 -3.127322,-0.32326 -3.461104,-0.339475 -3.278628,-0.159336 0.103042,0.101718 1.325497,0.279754 2.716578,0.39562 3.110306,0.25907 3.934351,0.26373 3.934351,0.02223 0,-0.103042 -0.210771,-0.187348 -0.468376,-0.187348 -0.739846,0 -0.60312,-0.559246 0.140514,-0.574732 0.574315,-0.01197 0.58495,-0.02422 0.187348,-0.215983 -0.478523,-0.230782 -0.596471,-0.815308 -0.128264,-0.635636 0.225138,0.0864 0.265734,0.02578 0.174729,-0.260982 -0.144026,-0.45379 0.139764,-0.48952 0.492643,-0.06203 0.191242,0.231681 0.199817,0.330793 0.03349,0.386804 -0.123017,0.04142 -0.175678,0.200355 -0.117034,0.353176 0.138914,0.361999 0.661247,-0.405207 2.126515,-3.123428 1.157473,-2.147234 1.239187,-2.334036 0.940159,-2.14923 -0.09787,0.06047 -0.269451,-0.06097 -0.381288,-0.269969 -0.161594,-0.301938 -0.146561,-0.379949 0.07322,-0.379949 0.152106,0 0.332217,0.09005 0.400237,0.200122 0.06805,0.110073 0.22574,0.160964 0.350478,0.113096 0.124738,-0.04787 0.430033,0.06628 0.67844,0.253647 0.444372,0.335191 0.446468,0.350719 0.130112,0.96417 -0.176846,0.342924 -0.402566,0.749958 -0.501607,0.904521 -0.09903,0.154563 -0.575596,0.997635 -1.059019,1.873498 -1.14118,2.067581 -1.982886,3.433595 -2.214928,3.594637 -0.101959,0.07074 -0.893496,0.07869 -1.758979,0.01763 -1.505041,-0.106207 -1.56547,-0.09549 -1.387108,0.246042 0.102568,0.196397 0.415772,1.32663 0.696015,2.51162 0.280235,1.184989 0.622479,2.428532 0.760543,2.763418 0.236412,0.573451 0.306081,0.608884 1.197325,0.608884 0.565499,0 0.946312,0.08325 0.946312,0.20687 0,0.113783 -0.653387,0.943628 -1.451963,1.844112 -3.226427,3.638128 -3.793837,4.297208 -3.793837,4.406744 0,0.06288 0.526921,0.681845 1.170934,1.375431 0.644019,0.693586 2.098325,2.258922 3.231787,3.478524 1.133469,1.219594 2.088958,2.292775 2.1233,2.384842 0.03434,0.09206 -0.682263,0.160475 -1.59247,0.152028 l -1.654931,-0.01537 -3.091273,-3.370744 -3.091279,-3.370744 -0.05105,3.38611 -0.05105,3.386102 h -1.307221 -1.307221 z m 5.857197,-1.149422 2.391215,-2.729083 -0.553178,-1.933686 c -0.304247,-1.063523 -0.558857,-1.891534 -0.565796,-1.840013 -0.0071,0.05155 -0.180118,1.063218 -0.384835,2.248201 -0.204725,1.18499 -0.372777,2.381401 -0.373464,2.658684 -7.08e-4,0.27729 -0.0929,0.560804 -0.204915,0.630034 -0.544957,0.336806 -0.539469,-0.366418 0.02846,-3.645024 0.325079,-1.876593 0.551146,-3.451906 0.502365,-3.50068 -0.152467,-0.152474 -2.252145,-0.449845 -3.184252,-0.450978 l -0.889913,-7.08e-4 0.0071,6.135713 0.0071,6.135719 0.414802,-0.489364 c 0.228141,-0.269147 1.490851,-1.717441 2.806017,-3.21844 z M 29.04656,32.243855 c 0.107439,-0.537182 0.156134,-0.562588 1.100683,-0.574307 l 0.988267,-0.01225 -1.498796,-0.597108 c -0.824343,-0.328414 -1.599395,-0.66214 -1.722334,-0.741616 -0.122947,-0.07948 -0.565584,-0.753718 -0.98365,-1.498315 -0.818452,-1.457733 -1.200016,-2.009552 -1.389537,-2.009552 -0.226697,0 -0.11952,2.231228 0.158443,3.298377 0.153062,0.587648 0.455659,1.434841 0.672435,1.88264 l 0.39414,0.814189 h 1.083973 c 1.05453,0 1.087017,-0.0153 1.196376,-0.56205 z m 8.64709,-0.515209 c 0.160349,-0.283366 0.452863,-0.768135 0.650039,-1.07726 0.379793,-0.595445 0.525838,-0.85135 1.482566,-2.597816 1.026412,-1.873662 0.530512,-1.338257 -0.632605,0.683007 -1.814323,3.152934 -2.005926,3.507278 -1.896412,3.507278 0.05771,0 0.236071,-0.231844 0.396412,-0.515209 z m -8.542993,-1.592477 c -0.04404,-0.02578 -0.407615,-0.341911 -0.807873,-0.702565 l -0.727752,-0.655724 0.344701,0.602171 c 0.308949,0.53971 0.551195,0.711862 1.099317,0.781227 0.09445,0.01197 0.135678,7.08e-4 0.09161,-0.02507 z m 0.923306,-4.777424 c 0.780242,-0.691073 1.155228,-1.67519 1.155228,-3.031836 0,-0.919051 -0.06592,-1.158819 -0.362389,-1.317467 -0.54883,-0.293725 -1.515995,-0.226031 -2.380742,0.166629 -0.667033,0.302887 -0.831395,0.500531 -1.170934,1.408039 -0.818841,2.188545 -0.385983,3.271363 1.31261,3.283613 0.682539,0.005 0.986978,-0.10222 1.446227,-0.508978 z M 58.5823,31.400784 c 0,-0.154563 0.03526,-0.281029 0.07835,-0.281029 0.04312,0 0.211713,-0.05119 0.374703,-0.11372 0.189061,-0.07254 0.296351,-0.01197 0.296351,0.167308 0,0.154563 -0.133355,0.332203 -0.296351,0.394742 -0.418739,0.160688 -0.453054,0.14802 -0.453054,-0.167301 z M 36.567624,29.994507 c -0.187072,-0.206714 -0.291764,-0.424219 -0.232638,-0.483345 0.161871,-0.161871 1.089376,0.499858 0.970416,0.692339 -0.159987,0.258866 -0.367593,0.200058 -0.737778,-0.208994 z m 0.703605,-0.684975 c -0.255969,-0.10329 -0.326353,-0.625326 -0.08431,-0.625326 0.193897,0 0.599515,0.405618 0.599515,0.599523 0,0.16386 -0.153954,0.171571 -0.51521,0.02577 z m 20.637347,-0.654457 c -0.06805,-0.110059 -0.0075,-0.2737 0.13451,-0.363649 0.37136,-0.235215 0.539214,-0.206665 0.539214,0.09171 0,0.33158 -0.509715,0.537324 -0.673724,0.271937 z M 37.700462,28.26364 c -0.210311,-0.300253 -0.231419,-0.44161 -0.0738,-0.494151 0.215954,-0.07198 0.721825,0.462874 0.721825,0.763178 0,0.294475 -0.357206,0.146186 -0.648028,-0.269027 z M 57.4582,27.675631 c 0,-0.295566 0.697764,-0.538003 0.848135,-0.294688 0.05452,0.0882 -0.06635,0.248903 -0.268517,0.357114 C 57.554302,27.996823 57.4582,27.98647 57.4582,27.675607 Z M 38.532084,26.712502 c -0.130346,-0.157056 -0.178772,-0.343766 -0.10763,-0.414909 0.156269,-0.156269 0.715735,0.171628 0.818409,0.479657 0.106731,0.320193 -0.432037,0.271115 -0.710779,-0.06472 z"
       id="path858" /></g></svg>
